HIERARCHY
ROOT Hips
{
	OFFSET -0.001795 -0.223333 0.028219
	CHANNELS 6 Xposition Yposition Zposition Zrotation Yrotation Xrotation 
	JOINT LeftUpLeg
	{
		OFFSET 0.069520 -0.091406 -0.006815
		CHANNELS 3 Zrotation Yrotation Xrotation
		JOINT LeftLeg
		{
			OFFSET 0.034277 -0.375199 -0.004496
			CHANNELS 3 Zrotation Yrotation Xrotation
			JOINT LeftFoot
			{
				OFFSET -0.013596 -0.397961 -0.043693
				CHANNELS 3 Zrotation Yrotation Xrotation
				JOINT LeftToe
				{
					OFFSET 0.026358 -0.055791 0.119288
					CHANNELS 3 Zrotation Yrotation Xrotation
					End Site
					{
						OFFSET 0.000000 0.000000 0.000000
					}
				}
			}
		}
	}
	JOINT RightUpLeg
	{
		OFFSET -0.067670 -0.090522 -0.004320
		CHANNELS 3 Zrotation Yrotation Xrotation
		JOINT RightLeg
		{
			OFFSET -0.038290 -0.382569 -0.008850
			CHANNELS 3 Zrotation Yrotation Xrotation
			JOINT RightFoot
			{
				OFFSET 0.015774 -0.398415 -0.042312
				CHANNELS 3 Zrotation Yrotation Xrotation
				JOINT RightToe
				{
					OFFSET -0.025372 -0.048144 0.123348
					CHANNELS 3 Zrotation Yrotation Xrotation
					End Site
					{
						OFFSET 0.000000 0.000000 0.000000
					}
				}
			}
		}
	}
	JOINT Spine
	{
		OFFSET -0.002533 0.108963 -0.026696
		CHANNELS 3 Zrotation Yrotation Xrotation
		JOINT Spine1
		{
			OFFSET 0.005487 0.135180 0.001092
			CHANNELS 3 Zrotation Yrotation Xrotation
			JOINT Spine2
			{
				OFFSET 0.001457 0.052922 0.025425
				CHANNELS 3 Zrotation Yrotation Xrotation
				JOINT Neck
				{
					OFFSET -0.002778 0.213870 -0.042857
					CHANNELS 3 Zrotation Yrotation Xrotation
					JOINT Head
					{
						OFFSET 0.005152 0.064970 0.051349
						CHANNELS 3 Zrotation Yrotation Xrotation
						End Site
						{
							OFFSET 0.000000 0.000000 0.000000
						}
					}
				}
				JOINT LeftShoulder
				{
					OFFSET 0.078845 0.121749 -0.034090
					CHANNELS 3 Zrotation Yrotation Xrotation
					JOINT LeftArm
					{
						OFFSET 0.090977 0.030469 -0.008868
						CHANNELS 3 Zrotation Yrotation Xrotation
						JOINT LeftForeArm
						{
							OFFSET 0.259612 -0.012772 -0.027456
							CHANNELS 3 Zrotation Yrotation Xrotation
							JOINT LeftHand
							{
								OFFSET 0.249234 0.008986 -0.001171
								CHANNELS 3 Zrotation Yrotation Xrotation
								End Site
								{
									OFFSET 0.000000 0.000000 0.000000
								}
							}
						}
					}
				}
				JOINT RightShoulder
				{
					OFFSET -0.081759 0.118833 -0.038615
					CHANNELS 3 Zrotation Yrotation Xrotation
					JOINT RightArm
					{
						OFFSET -0.096012 0.032551 -0.009143
						CHANNELS 3 Zrotation Yrotation Xrotation
						JOINT RightForeArm
						{
							OFFSET -0.253742 -0.013329 -0.021401
							CHANNELS 3 Zrotation Yrotation Xrotation
							JOINT RightHand
							{
								OFFSET -0.255298 0.007772 -0.005559
								CHANNELS 3 Zrotation Yrotation Xrotation
								End Site
								{
									OFFSET 0.000000 0.000000 0.000000
								}
							}
						}
					}
				}
			}
		}
	}
}
MOTION
Frames: 5
Frame Time: 0.050000
-0.006627 0.952737 0.008846 -1.909835 5.116370 12.110444 7.940968 -0.590204 -7.107774 2.426894 0.461555 -13.776588 -2.886252 3.308699 19.362483 0.000000 0.000000 0.000000 -3.162485 1.106787 -13.995021 -1.803233 0.344988 2.854287 -1.741602 -9.319332 21.246276 0.000000 0.000000 0.000000 -2.313805 0.091331 0.968926 2.821168 -1.267913 -0.801057 2.367875 -0.782333 -3.345410 -1.701905 1.531715 -3.875734 0.000000 0.000000 0.000000 -6.502125 -2.605898 0.254653 -54.977976 -21.612893 4.371031 -162.811459 -60.909372 156.921863 0.000000 0.000000 0.000000 -11.087527 12.768079 4.130594 2.934221 56.644487 -1.470513 -84.393030 24.820259 -18.153054 0.000000 0.000000 0.000000 
-0.009927 0.952269 0.009806 -1.867567 9.851531 11.965772 9.066648 -0.703630 -8.128200 1.203233 0.361118 -13.774802 -5.233637 0.745767 19.481138 0.000000 0.000000 0.000000 -2.538788 1.007958 -12.808455 -1.865908 0.315499 1.971453 -4.135326 -12.346880 23.243916 0.000000 0.000000 0.000000 -2.370581 0.096204 0.379296 2.760634 -1.176220 -1.638309 0.643707 1.407210 -1.990851 0.987062 -0.105139 -5.001700 0.000000 0.000000 0.000000 -3.803418 0.949968 -1.038416 -56.098144 -13.333823 -0.240653 -158.884536 -55.287759 143.226803 0.000000 0.000000 0.000000 -11.805302 10.684298 3.119132 5.316568 53.438424 0.593736 -90.988188 24.484617 -17.824560 0.000000 0.000000 0.000000 
-0.011310 0.952090 0.011736 -1.858065 12.795176 11.844110 8.250543 -0.769206 -8.753342 2.945270 0.364697 -13.600424 -6.793973 -0.981303 19.488809 0.000000 0.000000 0.000000 -2.340822 0.920047 -11.763614 -1.445044 0.234814 1.342851 -5.644936 -14.097569 23.902498 0.000000 0.000000 0.000000 -2.521906 0.106797 -0.330807 3.049634 -1.235690 -2.355521 -0.321469 1.956834 -0.922202 1.745762 -0.785999 -3.552411 0.000000 0.000000 0.000000 -2.206009 3.976168 -1.817269 -58.202798 -8.332613 -3.263290 -152.961809 -53.123651 129.073646 0.000000 0.000000 0.000000 -10.140947 8.832332 2.506638 12.066315 50.816417 3.533596 -105.674216 29.378944 -27.633271 0.000000 0.000000 0.000000 
-0.011531 0.950478 0.014261 -2.055506 15.183632 11.382284 7.940266 -0.804988 -8.859570 4.019165 0.357967 -13.464234 -7.944403 -2.483671 19.063752 0.000000 0.000000 0.000000 -1.927024 0.825988 -10.069128 -1.188710 0.150678 0.050233 -6.878993 -15.533092 24.166918 0.000000 0.000000 0.000000 -3.093076 0.123378 -1.089045 3.307564 -1.275115 -3.014566 -0.264892 1.175004 -0.336880 1.629026 -0.829237 -2.678401 0.000000 0.000000 0.000000 -1.028080 5.801788 -2.122463 -60.835118 -5.330357 -5.356097 -149.153488 -51.130956 120.062188 0.000000 0.000000 0.000000 -6.562270 7.286567 2.254175 20.766214 48.428103 6.469751 -123.880440 36.975022 -50.231429 0.000000 0.000000 0.000000 
-0.010822 0.949318 0.016340 -2.080247 16.649068 10.898138 7.422603 -0.808054 -8.716112 4.946974 0.354900 -13.260520 -8.664971 -3.523957 18.661177 0.000000 0.000000 0.000000 -1.782051 0.745036 -8.822255 -1.066164 0.110498 -0.600934 -7.650369 -16.445971 24.287028 0.000000 0.000000 0.000000 -3.798404 0.128900 -1.375304 3.642237 -1.389998 -3.269882 -0.122320 -0.003644 -0.287578 0.352370 0.234753 -3.533554 0.000000 0.000000 0.000000 -1.076968 6.419363 -2.328649 -62.850340 -6.358236 -5.068897 -148.868121 -52.327492 121.276485 0.000000 0.000000 0.000000 -3.167218 6.032023 2.076965 28.881735 45.299534 8.537853 -139.109193 40.720741 -73.657817 0.000000 0.000000 0.000000 
